# Blender 4.2.0
# www.blender.org
o tree_lp.001
v -0.727590 1.920067 0.654745
v -0.466348 1.581950 -0.927039
v -0.397278 4.481966 1.207265
v 0.922393 1.559730 -0.513501
v 0.777902 4.321951 0.584148
v -0.738458 1.712505 0.413404
v 0.483749 4.480232 -0.771937
v -0.409127 4.895507 -0.856948
v 0.124568 4.867954 -1.057853
v 0.406466 1.286542 -0.830276
v 0.763135 4.501451 -0.528225
v 0.757248 4.443580 0.282838
v 0.722930 1.762957 0.784293
v 0.743401 1.574535 -0.233134
v 0.691710 1.999601 1.186716
v -0.060590 4.562698 1.197466
v 0.198756 4.596883 0.897533
v 0.413857 4.654153 0.665411
v 0.332849 1.796282 1.077313
v -0.813546 4.679249 -0.816278
v -0.666088 4.857006 0.737194
v 0.317615 4.604141 -0.770084
v 1.134057 1.652326 0.490897
v -0.760928 1.588936 0.148098
v -0.543092 1.537931 -0.495387
v 0.304883 1.475720 0.531244
v 0.657410 1.347851 0.294541
v 0.414303 1.187753 -0.414018
v 0.208072 4.850700 0.765341
v 0.482660 4.647140 0.524090
v 0.716369 4.793124 -0.469002
v 0.128012 1.513833 -0.216225
v 0.384849 -0.044688 -0.154425
v 0.266769 1.558351 -0.061495
v 0.395353 -0.041978 0.173625
v 0.233366 1.603586 0.119205
v 0.153827 -0.045761 0.365466
v 0.063799 1.616145 0.227970
v -0.144279 -0.051395 0.363955
v -0.113468 1.593158 0.198033
v -0.379688 -0.047700 0.160168
v -0.229163 1.546488 0.071058
v -0.414258 -0.045108 -0.172022
v -0.198549 1.507879 -0.092749
v -0.064166 1.494069 -0.215126
v -0.161533 -0.044098 -0.389701
v 0.175278 -0.038447 -0.422919
v 0.331170 3.162828 0.990879
v 0.578629 3.114344 0.216139
v 0.729690 2.865061 -0.107297
v 0.233758 2.861012 -0.801284
v 0.147216 3.240783 1.196990
v 0.035589 3.071036 -0.755602
v 0.666406 3.124605 0.694215
v -0.318180 3.228446 -0.454878
v -0.573793 3.304006 -0.221772
v 0.948368 2.940840 0.184526
v -0.770568 3.299658 -0.080766
v 0.175963 3.031091 -0.747909
v -0.166619 3.326644 0.907254
vn -0.8267 -0.3614 0.4313
vn -0.4380 -0.3117 -0.8432
vn -0.4192 0.1829 0.8893
vn 0.9088 -0.3332 -0.2511
vn 0.7474 0.1567 0.6456
vn -0.7555 -0.6529 0.0537
vn 0.3473 0.1206 -0.9300
vn -0.5117 0.6569 -0.5538
vn -0.2540 0.6254 -0.7379
vn 0.3900 -0.6581 -0.6440
vn 0.8339 0.2078 -0.5113
vn 0.9416 0.3333 -0.0486
vn 0.5478 -0.4763 0.6878
vn 0.8037 -0.5754 0.1514
vn 0.5231 -0.1812 0.8328
vn 0.3390 0.4461 0.8283
vn 0.6567 0.4486 0.6062
vn 0.7721 0.3589 0.5244
vn -0.2365 -0.5760 0.7825
vn -0.6793 0.3836 -0.6256
vn -0.6270 0.6661 0.4040
vn 0.2883 -0.0842 -0.9538
vn 0.9165 -0.3075 0.2559
vn -0.7643 -0.6263 -0.1538
vn -0.7646 -0.5563 -0.3255
vn -0.0760 -0.8724 0.4829
vn 0.2894 -0.9314 0.2207
vn 0.1406 -0.9900 -0.0079
vn 0.3241 0.9416 0.0915
vn 0.5298 0.8384 0.1284
vn 0.5916 0.7836 -0.1894
vn 0.4382 0.1240 -0.8903
vn 0.9398 0.0997 -0.3270
vn 0.9596 0.0981 -0.2639
vn 0.8806 0.0981 0.4637
vn 0.8519 0.0984 0.5143
vn 0.2774 0.0966 0.9559
vn 0.2754 0.0966 0.9565
vn -0.4008 0.0983 0.9109
vn -0.3680 0.0979 0.9246
vn -0.9120 0.1144 0.3940
vn -0.8899 0.1128 0.4420
vn -0.9034 0.1332 -0.4076
vn -0.9160 0.1327 -0.3787
vn -0.3752 0.1320 -0.9175
vn -0.3851 0.1321 -0.9134
vn 0.3827 0.1257 -0.9153
vn 0.7701 0.1789 0.6124
vn 0.7899 -0.0558 0.6107
vn 0.7619 0.1346 -0.6336
vn 0.3742 0.0930 -0.9227
vn -0.0322 -0.0307 0.9990
vn -0.5277 0.0915 -0.8445
vn 0.9075 0.1727 0.3828
vn -0.6426 -0.0735 -0.7627
vn -0.6440 -0.2254 -0.7311
vn 0.9233 -0.1029 0.3701
vn -0.9797 -0.1796 -0.0889
vn -0.0318 0.0930 -0.9952
vn -0.7842 -0.1081 0.6111
vt 0.227569 0.600658
vt 0.437477 0.597188
vt 0.453577 0.656947
vt 0.233558 0.647112
vt 0.444670 0.710294
vt 0.239333 0.711509
vt 0.214066 0.562970
vt 0.401948 0.555601
vt 0.422774 0.734519
vt 0.238083 0.745536
vt 0.660177 0.431255
vt 0.656655 0.646514
vt 0.513114 0.676822
vt 0.550575 0.464968
vt 0.701931 0.442346
vt 0.704381 0.643361
vt 0.550575 0.464968
vt 0.480530 0.674140
vt 0.509934 0.491733
vt 0.251310 0.057648
vt 0.479192 0.085180
vt 0.480659 0.130470
vt 0.267356 0.135443
vt 0.482370 0.181778
vt 0.295840 0.175315
vt 0.208380 0.030297
vt 0.402340 0.047469
vt 0.490546 0.225555
vt 0.317269 0.222202
vt 0.207745 0.301855
vt 0.402618 0.304306
vt 0.475548 0.484298
vt 0.266646 0.473199
vt 0.177906 0.274588
vt 0.332154 0.263528
vt 0.207745 0.301855
vt 0.514180 0.971140
vt 0.477988 0.976254
vt 0.463158 0.806658
vt 0.498638 0.841052
vt 0.392262 0.972974
vt 0.382866 0.845016
vt 0.338498 0.976254
vt 0.336643 0.849765
vt 0.336643 0.849765
vt 0.363237 0.779080
vt 0.400159 0.787512
vt 0.463158 0.806658
vt 0.486090 0.754554
vt 0.498638 0.841052
vt 0.531433 0.794379
vt 0.574623 0.829475
vt 0.597092 0.788817
vt 0.553526 0.972651
vt 0.983900 0.436912
vt 0.865151 0.457499
vt 0.816473 0.447965
vt 0.774887 0.308774
vt 0.975992 0.200413
vt 0.956771 0.524449
vt 0.921775 0.523935
vt 0.983900 0.436912
vt 0.873576 0.496654
vt 0.827395 0.482503
vt 0.731447 0.496686
vt 0.729447 0.460133
vt 0.742091 0.301070
vt 0.774887 0.308774
vt 0.729447 0.250646
vt 0.767627 0.242051
vt 0.830328 0.226745
vt 0.905123 0.221592
vt 0.947376 0.710501
vt 0.628851 0.748247
vt 0.627057 0.725571
vt 0.937329 0.664328
vt 0.624522 0.703142
vt 0.921022 0.619527
vt 0.904487 0.978147
vt 0.621971 0.882318
vt 0.624386 0.861635
vt 0.922412 0.943835
vt 0.626729 0.838986
vt 0.940007 0.899348
vt 0.940007 0.899348
vt 0.628446 0.816402
vt 0.952213 0.848947
vt 0.629484 0.793708
vt 0.954993 0.805908
vt 0.629846 0.770946
vt 0.959950 0.758480
vt 0.959950 0.758480
vt 0.023657 0.285647
vt 0.012873 0.299403
vt 0.057743 0.462100
vt 0.109310 0.168852
vt 0.143992 0.218850
vt 0.014421 0.013124
vt 0.023428 0.030117
vt 0.054053 0.140416
vt 0.588035 0.253113
vt 0.539339 0.309326
vt 0.699482 0.241332
vt 0.033996 0.712723
vt 0.053393 0.756553
vt 0.026184 0.570340
vt 0.017660 0.604127
vt 0.013539 0.637277
s 1
f 56/1/56 8/2/8 9/3/9 55/4/55
f 55/4/55 9/3/9 22/5/22 53/6/53
f 58/7/58 20/8/20 8/2/8 56/1/56
f 53/6/53 22/5/22 7/9/7 59/10/59
f 51/11/51 11/12/11 12/13/12 50/14/50
f 59/15/59 7/16/7 11/12/11 51/11/51
f 50/17/50 12/13/12 5/18/5 57/19/57
f 49/20/49 18/21/18 17/22/17 54/23/54
f 54/23/54 17/22/17 16/24/16 48/25/48
f 57/26/57 5/27/5 18/21/18 49/20/49
f 48/25/48 16/24/16 3/28/3 52/29/52
f 60/30/60 21/31/21 20/32/20 58/33/58
f 52/34/52 3/35/3 21/31/21 60/36/60
f 6/37/6 24/38/24 27/39/27 26/40/26
f 24/38/24 25/41/25 28/42/28 27/39/27
f 25/41/25 2/43/2 10/44/10 28/42/28
f 28/42/28 10/45/10 4/46/4 14/47/14
f 27/48/27 28/42/28 14/47/14 23/49/23
f 26/50/26 27/48/27 23/49/23 13/51/13
f 19/52/19 26/50/26 13/51/13 15/53/15
f 1/54/1 6/37/6 26/40/26 19/52/19
f 21/55/21 29/56/29 30/57/30
f 21/55/21 30/57/30 31/58/31 20/59/20
f 3/60/3 16/61/16 21/62/21
f 16/61/16 17/63/17 29/56/29 21/55/21
f 17/63/17 18/64/18 30/57/30 29/56/29
f 18/64/18 5/65/5 12/66/12 30/57/30
f 30/57/30 12/66/12 11/67/11 31/68/31
f 31/68/31 11/67/11 7/69/7 22/70/22
f 31/68/31 22/70/22 9/71/9
f 20/59/20 31/58/31 9/71/9 8/72/8
f 46/73/46 45/74/45 32/75/32 47/76/47
f 47/76/47 32/75/32 34/77/34 33/78/33
f 33/79/33 34/80/34 36/81/36 35/82/35
f 35/82/35 36/81/36 38/83/38 37/84/37
f 37/85/37 38/83/38 40/86/40 39/87/39
f 39/87/39 40/86/40 42/88/42 41/89/41
f 41/89/41 42/88/42 44/90/44 43/91/43
f 43/92/43 44/90/44 45/74/45 46/73/46
f 15/93/15 52/34/52 60/36/60 19/94/19
f 19/94/19 60/30/60 58/33/58 1/95/1
f 13/96/13 48/25/48 52/29/52 15/97/15
f 4/98/4 57/26/57 49/20/49 14/99/14
f 23/100/23 54/23/54 48/25/48 13/96/13
f 14/99/14 49/20/49 54/23/54 23/100/23
f 10/101/10 50/17/50 57/19/57 4/102/4
f 2/103/2 59/15/59 51/11/51
f 2/103/2 51/11/51 50/14/50 10/101/10
f 25/104/25 53/6/53 59/10/59 2/105/2
f 1/106/1 58/7/58 56/1/56 6/107/6
f 24/108/24 55/4/55 53/6/53 25/104/25
f 6/107/6 56/1/56 55/4/55 24/108/24
