# Blender 4.2.0
# www.blender.org
mtllib tree1.mtl
o tree_lp
v -0.727590 1.920067 0.654745
v -0.466348 1.581950 -0.927039
v -0.813546 4.679249 -0.816278
v -0.397278 4.481966 1.207265
v 0.691710 1.999601 1.186716
v 0.922393 1.559730 -0.513501
v 0.483749 4.480232 -0.771937
v 0.974343 4.321951 0.882553
v -0.897675 2.425414 0.624696
v -1.096907 3.202100 0.310834
v -0.853600 4.012197 -0.486325
v -0.738458 1.712505 0.413404
v -0.760928 1.588936 0.148098
v -0.543092 1.537931 -0.495387
v -0.273688 2.167687 -0.921663
v 0.253231 3.030370 -1.095450
v 0.265994 3.833417 -0.842264
v -0.409127 4.895507 -0.856948
v 0.124568 4.867954 -1.057853
v 0.614269 4.604141 -1.015817
v -0.295620 1.220572 -1.074343
v 0.139525 1.141597 -1.057943
v 0.406466 1.286542 -0.830276
v 0.924492 2.163591 -0.252083
v 0.874824 2.961585 0.123276
v 1.067742 3.782993 0.665864
v 0.763135 4.501451 -0.528225
v 0.920850 4.495691 -0.002567
v 1.052913 4.443580 0.615682
v 0.722930 1.762957 0.784293
v 1.134057 1.652326 0.490897
v 0.743401 1.574535 -0.233134
v -0.155146 3.934215 1.593457
v 0.097195 3.190485 1.107415
v 0.322304 2.469456 0.901372
v -0.060590 4.562698 1.197466
v 0.198756 4.596883 0.897533
v 0.413857 4.654153 0.665411
v -0.512916 1.786139 1.008807
v -0.065254 1.767292 1.104508
v 0.332849 1.796282 1.077313
v -0.927530 4.937460 -0.444064
v -0.819850 4.952271 0.169436
v -0.666088 4.857006 0.737194
v -0.833461 2.340233 0.372582
v -0.598258 3.166846 -0.203264
v -0.568055 4.031596 -0.764830
v -0.761956 2.258013 -0.183621
v -0.459237 3.109628 -0.562381
v -0.189198 3.964075 -0.950032
v -0.482168 2.204470 -0.609625
v -0.187571 3.071157 -0.847187
v 0.137792 3.890444 -0.954812
v 0.106671 2.082597 -1.008916
v 0.653081 2.984619 -0.896217
v 0.833666 3.811288 -0.676139
v 0.390987 2.060552 -0.864300
v 0.565207 2.980555 -0.529195
v 0.616203 3.811366 -0.315015
v 0.993933 2.092882 -0.672133
v 0.943461 2.977245 -0.190575
v 1.243050 3.794217 0.343125
v 0.757147 2.227017 0.033105
v 0.714589 3.025109 0.366864
v 1.034304 3.868931 1.189068
v 0.622635 2.301497 0.324600
v 0.968510 3.074245 1.204391
v 0.350823 3.927981 0.908856
v 0.550113 2.378303 0.762450
v 0.530224 3.145794 1.405949
v 0.119809 3.959598 1.044073
v 0.300052 2.481973 1.664290
v -0.197527 3.212926 0.875567
v -0.484934 3.988302 0.778385
v -0.223257 2.445464 0.951420
v -0.410892 3.229394 0.868983
v -0.698214 4.048116 0.657268
v -0.549670 2.438100 0.897994
v -0.785564 3.228797 0.856245
v -0.896246 4.063367 0.105565
v -0.448288 1.419643 0.684268
v -0.373961 1.344309 0.105566
v -0.388191 1.162040 -0.483446
v 0.022619 1.424956 0.660987
v 0.031003 1.262703 0.097728
v 0.003619 1.051556 -0.468938
v 0.304883 1.475720 0.531244
v 0.657410 1.347851 0.294541
v 0.414303 1.187753 -0.414018
v -0.263243 4.857997 0.749701
v 0.208072 4.850700 0.765341
v 0.633108 4.792858 0.697195
v -0.352135 5.540246 0.052987
v 0.191693 5.582626 0.192388
v 0.476029 5.166854 0.038501
v -0.384568 5.580439 -0.519390
v 0.236886 5.540510 -0.506395
v 0.716369 4.793124 -0.469002
v -0.011418 -0.038636 -0.440593
v 0.031039 1.277518 -0.233956
v 0.175278 -0.038447 -0.422919
v 0.128012 1.290491 -0.216225
v 0.317652 -0.038928 -0.304220
v 0.203706 1.312271 -0.169296
v 0.384849 -0.044688 -0.154425
v 0.266769 1.335009 -0.061495
v 0.428695 -0.043033 -0.022078
v 0.271568 1.358360 0.024519
v 0.395353 -0.041978 0.173625
v 0.233366 1.380244 0.119205
v 0.282919 -0.043637 0.306008
v 0.148363 1.391278 0.198673
v 0.153827 -0.045761 0.365466
v 0.063799 1.392803 0.227970
v 0.004347 -0.054209 0.376362
v -0.023972 1.385987 0.228271
v -0.144279 -0.051395 0.363955
v -0.113468 1.369816 0.198033
v -0.288075 -0.049361 0.282499
v -0.185125 1.347931 0.150772
v -0.379688 -0.047700 0.160168
v -0.229163 1.323146 0.071058
v -0.433307 -0.045605 0.014062
v -0.229835 1.300335 -0.014324
v -0.414258 -0.045108 -0.172022
v -0.198549 1.284537 -0.092749
v -0.294180 -0.042250 -0.327382
v -0.134679 1.273294 -0.172941
v -0.161533 -0.044098 -0.389701
v -0.064166 1.270727 -0.215126
v -0.007214 0.441746 -0.267882
v -0.005623 0.940476 -0.253879
v 0.091262 0.939216 -0.213828
v 0.094797 0.440102 -0.227830
v 0.159110 0.937665 -0.159189
v 0.197274 0.442802 -0.190710
v 0.211992 0.935802 -0.082377
v 0.217120 0.442473 -0.083441
v 0.205034 0.936420 -0.005406
v 0.265704 0.444376 -0.019925
v 0.211688 0.938157 0.089443
v 0.299819 0.447701 0.131249
v 0.154792 0.936631 0.178571
v 0.143350 0.442271 0.168412
v 0.085012 0.936183 0.212970
v 0.090504 0.443084 0.213816
v 0.005537 0.937222 0.244394
v 0.006643 0.440739 0.216157
v -0.089429 0.938201 0.220958
v -0.088091 0.439198 0.224176
v -0.178583 0.938772 0.171348
v -0.177963 0.440630 0.173357
v -0.244275 0.939037 0.097329
v -0.225657 0.441921 0.095275
v -0.261517 0.941790 0.012031
v -0.281724 0.443455 0.013182
v -0.271776 0.946252 -0.111504
v -0.290746 0.444622 -0.119041
v -0.171826 0.942890 -0.212309
v -0.185391 0.443672 -0.214720
v -0.096163 0.940044 -0.236250
v -0.085155 0.441346 -0.204398
vn -0.8964 -0.2494 0.3664
vn -0.7804 -0.0122 -0.6252
vn -0.7038 0.0456 -0.7090
vn -0.4788 0.3669 0.7976
vn 0.8876 0.0017 0.4607
vn 0.8784 -0.4756 -0.0461
vn 0.8053 -0.2485 -0.5383
vn 0.6678 0.3759 0.6425
vn -0.9522 -0.1797 0.2469
vn -0.9947 -0.0782 -0.0661
vn -0.8544 -0.1994 -0.4798
vn -0.8998 -0.4164 0.1306
vn -0.8915 -0.4493 -0.0583
vn -0.9264 -0.2864 -0.2447
vn -0.5194 0.1074 -0.8477
vn -0.0383 0.0823 -0.9959
vn 0.4238 0.0027 -0.9058
vn -0.3706 0.2913 -0.8819
vn 0.0928 0.3232 -0.9418
vn 0.6756 0.0085 -0.7372
vn -0.4095 -0.5233 -0.7473
vn 0.2532 -0.6315 -0.7329
vn 0.6166 -0.5923 -0.5186
vn 0.9441 -0.1722 0.2809
vn 0.8753 -0.3049 0.3754
vn 0.8928 -0.1824 0.4118
vn 0.9370 -0.0111 -0.3490
vn 0.9309 0.3229 -0.1707
vn 0.8652 0.4192 0.2751
vn 0.7005 -0.3456 0.6244
vn 0.9464 -0.2069 0.2479
vn 0.8668 -0.4950 0.0611
vn -0.2570 -0.0448 0.9654
vn 0.0123 -0.0896 0.9959
vn 0.5699 0.0530 0.8200
vn 0.3941 0.5331 0.7487
vn 0.3277 0.3778 0.8660
vn 0.2768 0.2400 0.9305
vn -0.4855 -0.3152 0.8155
vn -0.1849 -0.5078 0.8414
vn 0.1966 -0.6616 0.7236
vn -0.9121 0.3549 -0.2050
vn -0.8356 0.4179 0.3566
vn -0.6800 0.4331 0.5916
vn -0.9655 -0.1484 -0.2142
vn -0.8368 -0.1719 -0.5199
vn -0.5381 -0.2048 -0.8176
vn -0.9430 0.0144 -0.3324
vn -0.7745 -0.0413 -0.6313
vn -0.4012 -0.1045 -0.9100
vn -0.8399 0.0603 -0.5393
vn -0.5442 0.0458 -0.8377
vn 0.0708 -0.1626 -0.9841
vn 0.2298 -0.0299 -0.9728
vn 0.7722 -0.1031 -0.6270
vn 0.9061 -0.0428 -0.4208
vn 0.5773 -0.0061 -0.8165
vn 0.8893 0.0295 -0.4564
vn 0.9755 -0.0357 -0.2170
vn 0.7894 0.0233 -0.6134
vn 0.9371 0.0408 -0.3467
vn 0.9916 -0.0809 -0.1006
vn 0.9819 -0.0021 0.1894
vn 0.9225 -0.2809 0.2646
vn 0.6825 0.1333 0.7186
vn 0.9911 0.1006 0.0876
vn 0.7607 -0.1830 0.6228
vn 0.4167 0.3261 0.8485
vn 0.7930 -0.0852 0.6032
vn 0.3278 -0.0726 0.9420
vn 0.5415 0.2498 0.8028
vn 0.1422 0.1569 0.9773
vn -0.6048 -0.0283 0.7959
vn -0.7348 -0.1066 0.6699
vn -0.4097 0.0195 0.9120
vn -0.4037 0.1143 0.9077
vn -0.7826 0.1039 0.6138
vn -0.4643 0.0269 0.8852
vn -0.6786 0.1172 0.7251
vn -0.9617 0.1410 0.2350
vn -0.4174 -0.8096 0.4127
vn -0.4462 -0.8788 0.1689
vn -0.5767 -0.8169 -0.0024
vn 0.0579 -0.8833 0.4652
vn -0.0097 -0.9582 0.2858
vn 0.0136 -0.9977 0.0670
vn 0.1781 -0.8537 0.4893
vn 0.3995 -0.8833 0.2453
vn 0.4326 -0.9005 0.0450
vn -0.1268 0.7486 0.6507
vn 0.3073 0.5626 0.7675
vn 0.5773 0.5807 0.5740
vn -0.3668 0.8728 0.3220
vn 0.3145 0.8595 0.4029
vn 0.7848 0.6020 0.1472
vn -0.3881 0.8343 -0.3914
vn 0.3989 0.8309 -0.3878
vn 0.8777 0.3923 -0.2750
vn -0.1251 0.3733 -0.9192
vn 0.0786 0.0325 -0.9964
vn 0.3466 0.3666 -0.8634
vn 0.4668 -0.0497 -0.8830
vn 0.7347 0.3596 -0.5753
vn 0.7531 -0.0942 -0.6512
vn 0.8780 0.3227 -0.3535
vn 0.9711 -0.1349 -0.1971
vn 0.9322 0.2946 -0.2105
vn 0.9847 -0.1271 0.1192
vn 0.8361 0.2996 0.4595
vn 0.8874 -0.0793 0.4542
vn 0.4888 0.3056 0.8171
vn 0.5771 -0.0367 0.8158
vn 0.2622 0.3305 0.9067
vn 0.2838 -0.0060 0.9589
vn 0.0117 0.2981 0.9545
vn -0.0405 0.0188 0.9990
vn -0.2501 0.2999 0.9206
vn -0.3925 0.0256 0.9194
vn -0.6391 0.3062 0.7055
vn -0.6610 0.0336 0.7497
vn -0.8220 0.3025 0.4824
vn -0.9233 0.0562 0.3800
vn -0.9363 0.2917 0.1956
vn -0.9944 0.1055 0.0014
vn -0.8885 0.2918 -0.3541
vn -0.9033 0.1695 -0.3941
vn -0.4845 0.3141 -0.8164
vn -0.5816 0.1554 -0.7985
vn -0.3157 0.3361 -0.8873
vn -0.2965 0.1022 -0.9496
vn -0.0889 0.2052 -0.9747
vn -0.0001 0.0229 -0.9997
vn 0.4295 0.0010 -0.9031
vn 0.3902 0.2086 -0.8968
vn 0.7363 -0.0177 -0.6765
vn 0.7515 0.2215 -0.6214
vn 0.9538 -0.0328 -0.2985
vn 0.9199 0.1909 -0.3427
vn 0.9980 -0.0119 -0.0625
vn 0.9524 0.2041 -0.2264
vn 0.9095 0.0140 0.4154
vn 0.8672 0.2238 0.4449
vn 0.5597 -0.0043 0.8287
vn 0.5123 0.1683 0.8421
vn 0.3344 -0.0129 0.9424
vn 0.3252 0.1616 0.9317
vn 0.0113 -0.0037 0.9999
vn 0.0368 0.1392 0.9896
vn -0.3463 0.0075 0.9381
vn -0.2693 0.1516 0.9510
vn -0.6691 0.0142 0.7430
vn -0.6565 0.1557 0.7380
vn -0.9014 0.0245 0.4323
vn -0.8524 0.1495 0.5010
vn -0.9907 0.0640 0.1198
vn -0.9603 0.1603 0.2285
vn -0.9178 0.1048 -0.3829
vn -0.9173 0.1736 -0.3583
vn -0.4978 0.0789 -0.8637
vn -0.4430 0.1666 -0.8809
vn -0.2825 0.0391 -0.9585
vn -0.2947 0.1535 -0.9432
vt 0.084727 0.575412
vt 0.207297 0.609736
vt 0.219021 0.653977
vt 0.098235 0.640418
vt 0.334601 0.610086
vt 0.341679 0.663305
vt 0.229829 0.701140
vt 0.111854 0.699397
vt 0.344114 0.697777
vt 0.026184 0.570340
vt 0.082869 0.545822
vt 0.017660 0.604127
vt 0.181435 0.534081
vt 0.313611 0.572535
vt 0.401948 0.555601
vt 0.437477 0.597188
vt 0.453577 0.656947
vt 0.444670 0.710294
vt 0.422774 0.734519
vt 0.334968 0.716133
vt 0.241499 0.756553
vt 0.121831 0.739613
vt 0.033996 0.712723
vt 0.053393 0.756553
vt 0.013539 0.637277
vt 0.661458 0.327414
vt 0.649699 0.456799
vt 0.606504 0.464149
vt 0.622761 0.339604
vt 0.652877 0.558627
vt 0.612166 0.568524
vt 0.539278 0.478669
vt 0.555988 0.359755
vt 0.517596 0.597426
vt 0.699482 0.241332
vt 0.708284 0.318442
vt 0.663698 0.215995
vt 0.691260 0.445939
vt 0.710486 0.550534
vt 0.704381 0.643361
vt 0.656655 0.646514
vt 0.588966 0.660908
vt 0.513114 0.676822
vt 0.480530 0.674140
vt 0.480530 0.607169
vt 0.505819 0.489853
vt 0.521140 0.375516
vt 0.588035 0.253113
vt 0.539339 0.309326
vt 0.619977 0.226691
vt 0.114730 0.059980
vt 0.238840 0.044362
vt 0.294753 0.110215
vt 0.148813 0.099251
vt 0.354588 0.073828
vt 0.392511 0.134121
vt 0.302863 0.144395
vt 0.190775 0.142996
vt 0.401970 0.169970
vt 0.014421 0.013124
vt 0.091637 0.018603
vt 0.020879 0.051183
vt 0.219945 0.013115
vt 0.339268 0.028496
vt 0.402340 0.047469
vt 0.479192 0.085180
vt 0.480659 0.130470
vt 0.482370 0.181778
vt 0.496224 0.211276
vt 0.415686 0.238891
vt 0.312973 0.192070
vt 0.218450 0.171093
vt 0.109310 0.168852
vt 0.143992 0.218850
vt 0.054053 0.140416
vt 0.082149 0.304054
vt 0.183962 0.334075
vt 0.193935 0.359708
vt 0.095883 0.372308
vt 0.292081 0.331034
vt 0.309873 0.358839
vt 0.206301 0.400544
vt 0.108799 0.411914
vt 0.346930 0.424971
vt 0.023657 0.285647
vt 0.089747 0.242920
vt 0.013115 0.331885
vt 0.162570 0.299644
vt 0.254846 0.234711
vt 0.332154 0.263528
vt 0.402618 0.304306
vt 0.442605 0.364996
vt 0.476158 0.428483
vt 0.475548 0.484298
vt 0.381218 0.485961
vt 0.232702 0.463377
vt 0.125371 0.460106
vt 0.034652 0.423395
vt 0.057743 0.462100
vt 0.018803 0.374384
vt 0.520330 0.921656
vt 0.457115 0.927372
vt 0.448074 0.879166
vt 0.514100 0.875034
vt 0.386454 0.930837
vt 0.380151 0.891503
vt 0.463158 0.806658
vt 0.498638 0.841052
vt 0.382866 0.845016
vt 0.553526 0.972651
vt 0.514180 0.971140
vt 0.569537 0.929074
vt 0.477988 0.976254
vt 0.392262 0.972974
vt 0.338498 0.976254
vt 0.323426 0.933698
vt 0.319145 0.888563
vt 0.336643 0.849765
vt 0.363237 0.779080
vt 0.400159 0.787512
vt 0.486090 0.754554
vt 0.531433 0.794379
vt 0.574623 0.829475
vt 0.597092 0.788817
vt 0.576982 0.875741
vt 0.932577 0.448371
vt 0.865151 0.457499
vt 0.871833 0.357452
vt 0.909701 0.340864
vt 0.805891 0.454512
vt 0.828006 0.360855
vt 0.859238 0.309254
vt 0.901460 0.300695
vt 0.774887 0.308774
vt 0.956771 0.524449
vt 0.921775 0.523935
vt 0.983900 0.436912
vt 0.873576 0.496654
vt 0.827395 0.482503
vt 0.731447 0.496686
vt 0.729447 0.460133
vt 0.732341 0.375307
vt 0.742091 0.301070
vt 0.729447 0.250646
vt 0.767627 0.242051
vt 0.830328 0.226745
vt 0.905123 0.221592
vt 0.984031 0.270405
vt 0.975992 0.200413
vt 0.986885 0.352527
vt 0.733451 0.728284
vt 0.628114 0.736873
vt 0.627057 0.725571
vt 0.731457 0.715093
vt 0.625874 0.714285
vt 0.729409 0.702466
vt 0.624522 0.703142
vt 0.726679 0.689083
vt 0.622776 0.691984
vt 0.723842 0.675932
vt 0.724245 0.887656
vt 0.622776 0.872838
vt 0.624386 0.861635
vt 0.727436 0.874810
vt 0.625692 0.850277
vt 0.729321 0.861291
vt 0.626729 0.838986
vt 0.731115 0.848090
vt 0.627701 0.827695
vt 0.732671 0.835492
vt 0.628446 0.816402
vt 0.734131 0.822571
vt 0.629026 0.805057
vt 0.735135 0.809846
vt 0.629484 0.793708
vt 0.735844 0.796871
vt 0.629701 0.782327
vt 0.736249 0.783949
vt 0.629846 0.770946
vt 0.736659 0.769474
vt 0.629473 0.759629
vt 0.735931 0.755350
vt 0.628851 0.748247
vt 0.734729 0.741903
vt 0.947376 0.710501
vt 0.840872 0.728628
vt 0.839667 0.709862
vt 0.943091 0.687259
vt 0.951018 0.734025
vt 0.845213 0.747046
vt 0.953472 0.757927
vt 0.847440 0.766358
vt 0.954838 0.781919
vt 0.847301 0.785941
vt 0.954993 0.805908
vt 0.845946 0.803587
vt 0.953653 0.829711
vt 0.845298 0.819812
vt 0.950752 0.853205
vt 0.843325 0.836376
vt 0.946259 0.876426
vt 0.839166 0.852955
vt 0.940007 0.899348
vt 0.836452 0.866081
vt 0.931593 0.921526
vt 0.832454 0.878658
vt 0.922412 0.943835
vt 0.828383 0.902443
vt 0.912104 0.965623
vt 0.819679 0.920133
vt 0.921022 0.619526
vt 0.824399 0.661450
vt 0.820198 0.647802
vt 0.910067 0.597407
vt 0.929965 0.641646
vt 0.831640 0.677550
vt 0.937329 0.664328
vt 0.835563 0.693541
s 1
f 45/1/45 46/2/46 49/3/49 48/4/48
f 46/2/46 47/5/47 50/6/50 49/3/49
f 48/4/48 49/3/49 52/7/52 51/8/51
f 49/3/49 50/6/50 53/9/53 52/7/52
f 1/10/1 9/11/9 45/1/45 12/12/12
f 9/11/9 10/13/10 46/2/46 45/1/45
f 10/13/10 11/14/11 47/5/47 46/2/46
f 11/14/11 3/15/3 18/16/18 47/5/47
f 47/5/47 18/16/18 19/17/19 50/6/50
f 50/6/50 19/17/19 20/18/20 53/9/53
f 53/9/53 20/18/20 7/19/7 17/20/17
f 52/7/52 53/9/53 17/20/17 16/21/16
f 51/8/51 52/7/52 16/21/16 15/22/15
f 14/23/14 51/8/51 15/22/15 2/24/2
f 13/25/13 48/4/48 51/8/51 14/23/14
f 12/12/12 45/1/45 48/4/48 13/25/13
f 54/26/54 55/27/55 58/28/58 57/29/57
f 55/27/55 56/30/56 59/31/59 58/28/58
f 57/29/57 58/28/58 61/32/61 60/33/60
f 58/28/58 59/31/59 62/34/62 61/32/61
f 2/35/2 15/36/15 54/26/54 21/37/21
f 15/36/15 16/38/16 55/27/55 54/26/54
f 16/38/16 17/39/17 56/30/56 55/27/55
f 17/39/17 7/40/7 27/41/27 56/30/56
f 56/30/56 27/41/27 28/42/28 59/31/59
f 59/31/59 28/42/28 29/43/29 62/34/62
f 62/34/62 29/43/29 8/44/8 26/45/26
f 61/32/61 62/34/62 26/45/26 25/46/25
f 60/33/60 61/32/61 25/46/25 24/47/24
f 23/48/23 60/33/60 24/47/24 6/49/6
f 22/50/22 57/29/57 60/33/60 23/48/23
f 21/37/21 54/26/54 57/29/57 22/50/22
f 63/51/63 64/52/64 67/53/67 66/54/66
f 64/52/64 65/55/65 68/56/68 67/53/67
f 66/54/66 67/53/67 70/57/70 69/58/69
f 67/53/67 68/56/68 71/59/71 70/57/70
f 6/60/6 24/61/24 63/51/63 32/62/32
f 24/61/24 25/63/25 64/52/64 63/51/63
f 25/63/25 26/64/26 65/55/65 64/52/64
f 26/64/26 8/65/8 38/66/38 65/55/65
f 65/55/65 38/66/38 37/67/37 68/56/68
f 68/56/68 37/67/37 36/68/36 71/59/71
f 71/59/71 36/68/36 4/69/4 33/70/33
f 70/57/70 71/59/71 33/70/33 34/71/34
f 69/58/69 70/57/70 34/71/34 35/72/35
f 30/73/30 69/58/69 35/72/35 5/74/5
f 31/75/31 66/54/66 69/58/69 30/73/30
f 32/62/32 63/51/63 66/54/66 31/75/31
f 72/76/72 73/77/73 76/78/76 75/79/75
f 73/77/73 74/80/74 77/81/77 76/78/76
f 75/79/75 76/78/76 79/82/79 78/83/78
f 76/78/76 77/81/77 80/84/80 79/82/79
f 5/85/5 35/86/35 72/76/72 41/87/41
f 35/86/35 34/88/34 73/77/73 72/76/72
f 34/88/34 33/89/33 74/80/74 73/77/73
f 33/89/33 4/90/4 44/91/44 74/80/74
f 74/80/74 44/91/44 43/92/43 77/81/77
f 77/81/77 43/92/43 42/93/42 80/84/80
f 80/84/80 42/93/42 3/94/3 11/95/11
f 79/82/79 80/84/80 11/95/11 10/96/10
f 78/83/78 79/82/79 10/96/10 9/97/9
f 39/98/39 78/83/78 9/97/9 1/99/1
f 40/100/40 75/79/75 78/83/78 39/98/39
f 41/87/41 72/76/72 75/79/75 40/100/40
f 81/101/81 82/102/82 85/103/85 84/104/84
f 82/102/82 83/105/83 86/106/86 85/103/85
f 84/104/84 85/103/85 88/107/88 87/108/87
f 85/103/85 86/106/86 89/109/89 88/107/88
f 1/110/1 12/111/12 81/101/81 39/112/39
f 12/111/12 13/113/13 82/102/82 81/101/81
f 13/113/13 14/114/14 83/105/83 82/102/82
f 14/114/14 2/115/2 21/116/21 83/105/83
f 83/105/83 21/116/21 22/117/22 86/106/86
f 86/106/86 22/117/22 23/118/23 89/109/89
f 89/109/89 23/118/23 6/119/6 32/120/32
f 88/107/88 89/109/89 32/120/32 31/121/31
f 87/108/87 88/107/88 31/121/31 30/122/30
f 41/123/41 87/108/87 30/122/30 5/124/5
f 40/125/40 84/104/84 87/108/87 41/123/41
f 39/112/39 81/101/81 84/104/84 40/125/40
f 90/126/90 91/127/91 94/128/94 93/129/93
f 91/127/91 92/130/92 95/131/95 94/128/94
f 93/129/93 94/128/94 97/132/97 96/133/96
f 94/128/94 95/131/95 98/134/98 97/132/97
f 4/135/4 36/136/36 90/126/90 44/137/44
f 36/136/36 37/138/37 91/127/91 90/126/90
f 37/138/37 38/139/38 92/130/92 91/127/91
f 38/139/38 8/140/8 29/141/29 92/130/92
f 92/130/92 29/141/29 28/142/28 95/131/95
f 95/131/95 28/142/28 27/143/27 98/134/98
f 98/134/98 27/143/27 7/144/7 20/145/20
f 97/132/97 98/134/98 20/145/20 19/146/19
f 96/133/96 97/132/97 19/146/19 18/147/18
f 42/148/42 96/133/96 18/147/18 3/149/3
f 43/150/43 93/129/93 96/133/96 42/148/42
f 44/137/44 90/126/90 93/129/93 43/150/43
f 132/151/132 100/152/100 102/153/102 133/154/133
f 133/154/133 102/153/102 104/155/104 135/156/135
f 135/156/135 104/155/104 106/157/106 137/158/137
f 137/158/137 106/157/106 108/159/108 139/160/139
f 139/161/139 108/162/108 110/163/110 141/164/141
f 141/164/141 110/163/110 112/165/112 143/166/143
f 143/166/143 112/165/112 114/167/114 145/168/145
f 145/168/145 114/167/114 116/169/116 147/170/147
f 147/170/147 116/169/116 118/171/118 149/172/149
f 149/172/149 118/171/118 120/173/120 151/174/151
f 151/174/151 120/173/120 122/175/122 153/176/153
f 153/176/153 122/175/122 124/177/124 155/178/155
f 155/178/155 124/177/124 126/179/126 157/180/157
f 157/180/157 126/179/126 128/181/128 159/182/159
f 159/182/159 128/181/128 130/183/130 161/184/161
f 161/184/161 130/183/130 100/152/100 132/151/132
f 129/185/129 162/186/162 131/187/131 99/188/99
f 162/186/162 161/184/161 132/151/132 131/187/131
f 127/189/127 160/190/160 162/186/162 129/185/129
f 160/190/160 159/182/159 161/184/161 162/186/162
f 125/191/125 158/192/158 160/190/160 127/189/127
f 158/192/158 157/180/157 159/182/159 160/190/160
f 123/193/123 156/194/156 158/192/158 125/191/125
f 156/194/156 155/178/155 157/180/157 158/192/158
f 121/195/121 154/196/154 156/194/156 123/193/123
f 154/196/154 153/176/153 155/178/155 156/194/156
f 119/197/119 152/198/152 154/196/154 121/195/121
f 152/198/152 151/174/151 153/176/153 154/196/154
f 117/199/117 150/200/150 152/198/152 119/197/119
f 150/200/150 149/172/149 151/174/151 152/198/152
f 115/201/115 148/202/148 150/200/150 117/199/117
f 148/202/148 147/170/147 149/172/149 150/200/150
f 113/203/113 146/204/146 148/202/148 115/201/115
f 146/204/146 145/168/145 147/170/147 148/202/148
f 111/205/111 144/206/144 146/204/146 113/203/113
f 144/206/144 143/166/143 145/168/145 146/204/146
f 109/207/109 142/208/142 144/206/144 111/205/111
f 142/208/142 141/164/141 143/166/143 144/206/144
f 107/209/107 140/210/140 142/208/142 109/207/109
f 140/210/140 139/161/139 141/164/141 142/208/142
f 105/211/105 138/212/138 140/213/140 107/214/107
f 138/212/138 137/158/137 139/160/139 140/213/140
f 103/215/103 136/216/136 138/212/138 105/211/105
f 136/216/136 135/156/135 137/158/137 138/212/138
f 101/217/101 134/218/134 136/216/136 103/215/103
f 134/218/134 133/154/133 135/156/135 136/216/136
f 99/188/99 131/187/131 134/218/134 101/217/101
f 131/187/131 132/151/132 133/154/133 134/218/134
