# Blender 4.2.0
# www.blender.org
o mushrooms_lp
v -0.180949 2.872637 0.507280
v -0.179053 0.192926 0.139806
v 0.056452 0.094012 0.037605
v 0.166527 0.094012 0.137869
v 0.179053 0.134984 0.280466
v 0.574367 2.624320 0.335883
v -0.166527 0.233897 0.282403
v -0.241794 1.381856 0.192520
v -0.244878 2.905375 0.178124
v -0.279567 1.442322 -0.026326
v -0.156131 1.547274 -0.189805
v -0.068856 2.855794 -0.104826
v -0.086692 0.134984 0.038407
v 0.244006 2.752937 -0.175821
v 0.056207 1.635234 -0.202152
v 0.233063 1.654675 -0.056135
v 0.270835 1.594209 0.162712
v 0.398345 2.673901 0.618832
v 0.147399 1.489257 0.326191
v 0.086692 0.192926 0.381865
v -0.064939 1.401298 0.338538
v -0.056452 0.233897 0.382667
v 0.510438 2.657058 0.006727
v 0.085483 2.776758 0.689827
v -0.088825 3.986541 0.768456
v -0.157387 4.027215 0.252296
v 0.116251 3.950138 -0.187567
v 0.572521 3.800255 -0.294637
v 0.948466 3.664966 -0.037056
v 1.022198 3.624119 0.433148
v 0.790167 3.687377 0.867697
v 0.333896 3.837260 0.974766
v -0.210504 3.961891 0.812694
v -0.339506 3.974243 0.189963
v -0.006658 3.880488 -0.345080
v 0.595928 3.682041 -0.471805
v 1.123844 3.548281 -0.225186
v 1.170731 3.509260 0.456369
v 0.859795 3.542657 1.011672
v 0.259272 3.740362 1.139810
v 0.005015 3.850177 0.656057
v 0.163221 3.822770 -0.101296
v 0.539055 3.699750 -0.202396
v 0.851356 3.587364 0.011579
v 0.929825 3.546896 0.423947
v 0.317316 3.737791 0.870032
v -0.067588 3.887784 0.269722
v 0.691153 3.615490 0.767563
v 0.283328 0.312450 0.372377
v 0.255337 0.256615 0.279807
v 0.488565 0.121817 0.290589
v 2.048607 1.922576 1.310661
v 0.516557 0.177652 0.383159
v 1.790091 1.950121 1.711719
v 0.589857 1.053175 0.678804
v 0.918337 1.977546 1.178749
v 0.489680 1.156488 0.583461
v 0.512123 1.249770 0.439954
v 0.929872 2.087249 0.951423
v 0.644041 1.278380 0.332349
v 1.072005 2.055845 0.744887
v 0.303855 0.177652 0.217508
v 0.808156 1.225556 0.323679
v 1.261477 1.901729 0.680128
v 0.400461 0.121817 0.221974
v 1.387298 1.715181 0.795080
v 0.908334 1.122244 0.419023
v 0.885890 1.028960 0.562529
v 1.375764 1.605478 1.022406
v 1.233631 1.636882 1.228942
v 0.753973 1.000351 0.670134
v 0.468039 0.256615 0.445458
v 1.044158 1.790998 1.293702
v 0.371432 0.312450 0.440992
v 1.483463 2.721742 0.799301
v 1.831107 2.407365 0.673820
v 1.337600 2.610266 1.620664
v 1.364670 2.756215 1.258169
v 1.570544 2.692847 0.929698
v 1.835171 2.457113 0.826793
v 2.009790 2.191070 0.987563
v 1.991337 2.051741 1.317119
v 1.809035 2.092690 1.639365
v 1.544408 2.328424 1.742271
v 1.243476 2.629510 1.645046
v 1.233041 2.798823 1.198848
v 2.108377 2.090616 0.829440
v 1.443405 2.263038 1.838082
v 1.511849 2.291131 1.644809
v 1.548985 2.579959 0.964129
v 1.366791 2.512135 1.511256
v 1.913639 2.167459 1.003754
v 1.375334 2.633410 1.241189
v 1.905057 2.037462 1.291961
v 1.730517 2.101048 1.550026
v 1.768582 2.388463 0.870201
v 1.770141 1.743800 -0.797293
v 0.816207 0.153589 -0.445898
v 0.868849 0.190812 -0.408674
v 2.124331 1.532624 -0.398775
v 0.868849 0.243454 -0.356032
v 0.816207 0.280678 -0.318809
v 0.741760 0.280678 -0.318809
v 0.689118 0.243455 -0.356032
v 0.689118 0.190812 -0.408674
v 0.741760 0.153589 -0.445898
v 1.519059 1.314531 -0.697735
v 1.641756 1.212483 -0.643818
v 1.168207 0.718455 -0.704306
v 1.683435 1.144333 -0.495514
v 1.204129 0.680268 -0.601858
v 1.619680 1.150003 -0.339698
v 1.173158 0.698979 -0.492611
v 1.487839 1.226171 -0.267644
v 1.093437 0.763628 -0.440560
v 1.365142 1.328220 -0.321560
v 1.011665 0.836344 -0.476197
v 1.323463 1.396370 -0.469864
v 0.975743 0.874532 -0.578645
v 1.387217 1.390700 -0.625681
v 1.006714 0.855820 -0.687892
v 1.086435 0.791171 -0.739942
v 2.036896 1.644471 -0.682334
v 1.999557 1.536635 -0.105726
v 1.999080 1.688930 -0.644098
v 1.777395 1.780563 -0.701935
v 2.069560 1.627109 -0.400368
v 1.967072 1.630639 -0.159415
v 1.751380 1.697464 -0.061746
v 1.548926 1.786165 -0.149158
v 1.479202 1.844391 -0.370060
v 1.561703 1.847387 -0.604266
v 1.716555 1.633689 0.017271
v 1.459903 1.774445 -0.044076
v 1.389827 1.852891 -0.369645
v 1.488234 1.840324 -0.673823
v 1.928631 1.648604 -0.588409
v 1.903553 1.597109 -0.205577
v 1.562630 1.734763 -0.189913
v 1.588770 1.785747 -0.572286
v 1.990080 1.594338 -0.408786
v 1.496570 1.792863 -0.381540
v 1.728428 1.655016 -0.118229
v 1.762834 1.728351 -0.660093
vn -0.8522 -0.1254 0.5080
vn -0.9338 -0.1167 -0.3383
vn 0.3849 -0.1446 -0.9116
vn 0.8678 -0.0997 -0.4869
vn 0.9793 -0.0435 0.1977
vn 0.8728 -0.4548 0.1773
vn -0.8832 -0.0214 0.4685
vn -0.8833 -0.0446 0.4667
vn -0.9847 -0.0241 -0.1723
vn -0.9610 -0.0456 -0.2726
vn -0.4871 -0.0338 -0.8727
vn -0.5953 -0.0380 -0.8026
vn -0.3394 -0.1651 -0.9260
vn 0.1145 -0.1804 -0.9769
vn 0.2538 -0.0633 -0.9652
vn 0.8269 -0.1450 -0.5433
vn 0.9652 -0.1906 0.1789
vn 0.4489 -0.4335 0.7814
vn 0.4936 -0.1494 0.8568
vn 0.5136 0.0159 0.8579
vn -0.3205 -0.0739 0.9444
vn -0.2984 0.0332 0.9539
vn 0.7448 -0.3757 -0.5515
vn -0.2926 -0.2921 0.9105
vn 0.2265 0.9669 0.1175
vn 0.2366 0.9715 0.0114
vn 0.2848 0.9582 -0.0278
vn 0.2682 0.9624 0.0442
vn 0.1788 0.9781 0.1069
vn 0.1689 0.9845 0.0476
vn 0.3039 0.9504 0.0662
vn 0.3197 0.9434 0.0880
vn -0.6692 0.5125 0.5381
vn -0.8200 0.5432 -0.1801
vn -0.4213 0.4628 -0.7800
vn 0.2283 0.3027 -0.9253
vn 0.8305 0.1413 -0.5387
vn 0.9728 0.0984 0.2098
vn 0.5979 0.0737 0.7982
vn -0.1012 0.2544 0.9618
vn 0.5817 0.7930 -0.1813
vn 0.5022 0.7755 0.3825
vn 0.1792 0.8508 0.4940
vn -0.1430 0.9401 0.3094
vn -0.2066 0.9762 -0.0661
vn 0.3362 0.8603 -0.3833
vn 0.6474 0.7537 0.1128
vn 0.0308 0.9408 -0.3375
vn -0.9358 0.1534 0.3174
vn -0.7729 0.2843 -0.5673
vn 0.7529 -0.2374 -0.6139
vn 0.8691 -0.4303 0.2439
vn 0.8909 -0.4238 0.1635
vn 0.4396 -0.4208 0.7935
vn -0.4761 -0.2389 0.8463
vn -0.8944 0.1456 0.4230
vn -0.9090 0.1495 0.3890
vn -0.8444 0.4178 -0.3353
vn -0.8544 0.4815 -0.1952
vn -0.3123 0.4020 -0.8607
vn -0.4115 0.4671 -0.7826
vn -0.2090 0.1623 -0.9643
vn 0.3352 0.1189 -0.9346
vn 0.1898 0.0835 -0.9783
vn 0.3106 -0.0238 -0.9502
vn 0.6150 -0.4968 -0.6124
vn 0.7889 -0.2810 -0.5465
vn 0.7901 -0.5807 0.1965
vn 0.5494 -0.8319 0.0784
vn 0.0625 -0.7784 0.6247
vn 0.2127 -0.5475 0.8093
vn 0.3269 -0.3795 0.8655
vn -0.5395 -0.3613 0.7605
vn -0.4183 -0.1517 0.8955
vn -0.0415 0.7838 -0.6197
vn 0.4788 0.3762 -0.7932
vn 0.6119 0.6839 0.3974
vn 0.6404 0.7078 0.2981
vn 0.6820 0.6837 0.2596
vn 0.6563 0.6791 0.3288
vn 0.5763 0.7188 0.3888
vn 0.5814 0.7414 0.3351
vn 0.6807 0.6449 0.3476
vn 0.6870 0.6278 0.3658
vn -0.4408 0.6171 0.6518
vn -0.4488 0.8931 -0.0302
vn 0.8766 -0.1403 -0.4604
vn -0.1200 0.0226 0.9925
vn 0.7375 0.6665 -0.1091
vn 0.7293 0.3251 0.6020
vn 0.8936 0.4437 0.0680
vn 0.2454 0.7865 0.5667
vn 0.8896 0.3055 0.3395
vn 0.2635 0.9398 0.2177
vn 0.4979 0.8660 -0.0469
vn 0.4605 0.5136 0.7240
vn 0.1490 0.4021 -0.9034
vn 0.2366 -0.5248 -0.8177
vn 0.7838 -0.5993 -0.1628
vn 0.9825 -0.1829 0.0341
vn 0.7283 -0.2932 0.6193
vn 0.1851 0.1446 0.9720
vn -0.5579 0.4654 0.6872
vn -0.9167 0.3959 -0.0541
vn -0.7745 0.1092 -0.6231
vn -0.3709 -0.2167 -0.9031
vn -0.0476 -0.0543 -0.9974
vn 0.4964 -0.4616 -0.7352
vn 0.4024 -0.4687 -0.7864
vn 0.6844 -0.7229 -0.0948
vn 0.7501 -0.6497 -0.1235
vn 0.4225 -0.6947 0.5821
vn 0.6093 -0.4822 0.6294
vn -0.1378 -0.4031 0.9047
vn 0.0490 -0.0635 0.9968
vn -0.7385 0.0263 0.6738
vn -0.5945 0.3509 0.7235
vn -0.9424 0.3346 -0.0011
vn -0.8749 0.4842 0.0111
vn -0.6626 0.2886 -0.6911
vn -0.6795 0.3127 -0.6637
vn -0.1736 -0.0664 -0.9826
vn 0.7793 0.1070 -0.6175
vn 0.6887 -0.1606 0.7071
vn 0.4275 0.9023 0.0563
vn 0.3550 0.9280 0.1129
vn 0.4398 0.8858 0.1478
vn 0.4082 0.8903 0.2017
vn 0.4137 0.8998 0.1389
vn 0.4642 0.8838 0.0580
vn 0.4796 0.8719 0.0988
vn 0.3777 0.9185 0.1169
vn 0.1049 0.1015 0.9893
vn -0.4759 0.4752 0.7401
vn -0.6672 0.7429 0.0531
vn -0.4583 0.6654 -0.5893
vn 0.0644 0.9100 0.4096
vn 0.0407 0.9808 -0.1906
vn 0.6561 0.7246 -0.2107
vn 0.5956 0.6906 0.4102
vn -0.0672 0.9903 0.1218
vn 0.7516 0.6480 0.1236
vn 0.3435 0.8725 -0.3476
vn 0.3368 0.7772 0.5315
vt 0.535576 0.045969
vt 0.589725 0.375909
vt 0.536917 0.385347
vt 0.507426 0.050273
vt 0.589725 0.375909
vt 0.666000 0.676127
vt 0.588470 0.694894
vt 0.570496 0.041291
vt 0.641809 0.362922
vt 0.739872 0.647287
vt 0.666000 0.676127
vt 0.324550 0.046040
vt 0.269334 0.375496
vt 0.217285 0.362218
vt 0.289833 0.041291
vt 0.190509 0.677820
vt 0.114684 0.646316
vt 0.359533 0.049535
vt 0.322167 0.385117
vt 0.269738 0.697637
vt 0.394701 0.051661
vt 0.375699 0.390921
vt 0.350187 0.707303
vt 0.322167 0.385117
vt 0.429976 0.052353
vt 0.429575 0.392906
vt 0.375699 0.390921
vt 0.394701 0.051661
vt 0.430160 0.709912
vt 0.350187 0.707303
vt 0.375699 0.390921
vt 0.465272 0.051612
vt 0.483441 0.391081
vt 0.483441 0.391081
vt 0.509607 0.705759
vt 0.536917 0.385347
vt 0.509607 0.705759
vt 0.246461 0.893138
vt 0.143534 0.890913
vt 0.715187 0.871852
vt 0.623271 0.890155
vt 0.509607 0.705759
vt 0.527393 0.894372
vt 0.433457 0.898938
vt 0.269738 0.697637
vt 0.335785 0.901098
vt 0.836613 0.860435
vt 0.623271 0.890156
vt 0.433457 0.898938
vt 0.335785 0.901098
vt 0.016973 0.871761
vt 0.629676 0.911347
vt 0.534087 0.927724
vt 0.534087 0.927724
vt 0.435747 0.936811
vt 0.435747 0.936811
vt 0.338408 0.939429
vt 0.239004 0.938787
vt 0.138884 0.926665
vt 0.026366 0.923634
vt 0.827637 0.907869
vt 0.722155 0.909374
vt 0.722155 0.909374
vt 0.629676 0.911347
vt 0.335754 0.972105
vt 0.236171 0.969183
vt 0.724127 0.939486
vt 0.632500 0.952473
vt 0.435470 0.969494
vt 0.818237 0.942483
vt 0.724127 0.939486
vt 0.134192 0.954485
vt 0.033442 0.960885
vt 0.539094 0.961517
vt 0.632500 0.952473
vt 0.569286 0.041291
vt 0.640442 0.362219
vt 0.588472 0.375177
vt 0.534441 0.045959
vt 0.738290 0.645961
vt 0.664580 0.674739
vt 0.323877 0.046030
vt 0.268782 0.374765
vt 0.216847 0.361516
vt 0.289236 0.041291
vt 0.190129 0.676428
vt 0.114470 0.644992
vt 0.216847 0.361516
vt 0.358784 0.049517
vt 0.321499 0.384365
vt 0.268782 0.374765
vt 0.323877 0.046030
vt 0.269185 0.696201
vt 0.190129 0.676428
vt 0.393875 0.051639
vt 0.374914 0.390156
vt 0.321499 0.384365
vt 0.374914 0.390156
vt 0.349458 0.705846
vt 0.429073 0.052329
vt 0.428672 0.392137
vt 0.428672 0.392137
vt 0.429257 0.708449
vt 0.349458 0.705846
vt 0.464292 0.051589
vt 0.482421 0.390316
vt 0.508530 0.704305
vt 0.429257 0.708449
vt 0.516460 0.064485
vt 0.535780 0.384594
vt 0.482421 0.390316
vt 0.535780 0.384595
vt 0.587220 0.693464
vt 0.508530 0.704305
vt 0.588472 0.375177
vt 0.834820 0.858643
vt 0.713660 0.870035
vt 0.143258 0.889054
vt 0.016973 0.869944
vt 0.245959 0.891275
vt 0.335087 0.899217
vt 0.245959 0.891275
vt 0.432546 0.897062
vt 0.526276 0.892506
vt 0.432546 0.897062
vt 0.621944 0.888299
vt 0.720613 0.907475
vt 0.628336 0.909443
vt 0.621944 0.888299
vt 0.532955 0.925784
vt 0.532955 0.925784
vt 0.434831 0.934852
vt 0.526276 0.892506
vt 0.434831 0.934852
vt 0.337705 0.937464
vt 0.432546 0.897062
vt 0.238518 0.936824
vt 0.238518 0.936824
vt 0.138617 0.924728
vt 0.026345 0.921704
vt 0.825863 0.905973
vt 0.720613 0.907475
vt 0.890576 0.351717
vt 0.778758 0.375367
vt 0.668517 0.300708
vt 0.650487 0.169826
vt 0.724278 0.069190
vt 0.838965 0.051842
vt 0.938356 0.124994
vt 0.958198 0.257004
vt 0.722580 0.937521
vt 0.631153 0.950480
vt 0.335057 0.970069
vt 0.235691 0.967153
vt 0.816484 0.940511
vt 0.434555 0.967464
vt 0.133935 0.952488
vt 0.033406 0.958873
vt 0.537952 0.959504
vt 0.235691 0.967153
vt 0.641809 0.362922
vt 0.589725 0.375909
vt 0.739872 0.647287
vt 0.269334 0.375496
vt 0.217285 0.362218
vt 0.289833 0.041291
vt 0.190509 0.677820
vt 0.114684 0.646316
vt 0.359533 0.049535
vt 0.322167 0.385117
vt 0.269334 0.375496
vt 0.394701 0.051661
vt 0.375699 0.390920
vt 0.269738 0.697637
vt 0.429976 0.052353
vt 0.429575 0.392906
vt 0.375699 0.390920
vt 0.350187 0.707303
vt 0.465272 0.051612
vt 0.483441 0.391081
vt 0.483441 0.391081
vt 0.430161 0.709912
vt 0.500500 0.049455
vt 0.666000 0.676127
vt 0.246461 0.893138
vt 0.143534 0.890913
vt 0.246461 0.893138
vt 0.527393 0.894372
vt 0.433457 0.898938
vt 0.722155 0.909374
vt 0.435747 0.936812
vt 0.338408 0.939428
vt 0.239004 0.938787
vt 0.026366 0.923634
vt 0.827637 0.907869
vt 0.783501 0.049579
vt 0.896241 0.072252
vt 0.962487 0.175745
vt 0.941707 0.304038
vt 0.835235 0.374281
vt 0.720567 0.349981
vt 0.652716 0.245082
vt 0.683155 0.112406
vt 0.896241 0.072252
vt 0.835235 0.374281
vt 0.720566 0.349981
vt 0.652716 0.245082
vt 0.683155 0.112406
s 1
f 22/1/22 21/2/21 8/3/8 7/4/7
f 21/5/21 24/6/24 1/7/1 8/3/8
f 20/8/20 19/9/19 21/2/21 22/1/22
f 19/9/19 18/10/18 24/11/24 21/2/21
f 5/12/5 17/13/17 19/14/19 20/15/20
f 17/13/17 6/16/6 18/17/18 19/14/19
f 4/18/4 16/19/16 17/13/17 5/12/5
f 16/19/16 23/20/23 6/16/6 17/13/17
f 3/21/3 15/22/15 16/19/16 4/18/4
f 15/22/15 14/23/14 23/20/23 16/24/16
f 13/25/13 11/26/11 15/27/15 3/28/3
f 11/26/11 12/29/12 14/30/14 15/31/15
f 2/32/2 10/33/10 11/26/11 13/25/13
f 10/34/10 9/35/9 12/29/12 11/26/11
f 7/4/7 8/36/8 10/34/10 2/32/2
f 8/36/8 1/7/1 9/37/9 10/34/10
f 6/16/6 23/20/23 37/38/37 38/39/38
f 1/7/1 24/6/24 40/40/40 33/41/33
f 12/29/12 9/42/9 34/43/34 35/44/35
f 23/45/23 14/23/14 36/46/36 37/38/37
f 24/11/24 18/10/18 39/47/39 40/40/40
f 9/37/9 1/7/1 33/48/33 34/43/34
f 14/30/14 12/29/12 35/49/35 36/50/36
f 18/17/18 6/16/6 38/39/38 39/51/39
f 25/52/25 26/53/26 34/43/34 33/48/33
f 26/54/26 27/55/27 35/44/35 34/43/34
f 27/56/27 28/57/28 36/50/36 35/49/35
f 28/57/28 29/58/29 37/38/37 36/46/36
f 29/58/29 30/59/30 38/39/38 37/38/37
f 30/59/30 31/60/31 39/51/39 38/39/38
f 31/61/31 32/62/32 40/40/40 39/47/39
f 32/63/32 25/64/25 33/41/33 40/40/40
f 29/58/29 28/57/28 43/65/43 44/66/44
f 25/64/25 32/63/32 46/67/46 41/68/41
f 28/57/28 27/56/27 42/69/42 43/65/43
f 32/62/32 31/61/31 48/70/48 46/71/46
f 31/60/31 30/59/30 45/72/45 48/73/48
f 27/55/27 26/54/26 47/74/47 42/69/42
f 30/59/30 29/58/29 44/66/44 45/72/45
f 26/53/26 25/52/25 41/75/41 47/74/47
f 72/76/72 71/77/71 55/78/55 74/79/74
f 71/77/71 70/80/70 73/81/73 55/78/55
f 53/82/53 68/83/68 71/84/71 72/85/72
f 68/83/68 69/86/69 70/87/70 71/88/71
f 51/89/51 67/90/67 68/91/68 53/92/53
f 67/90/67 66/93/66 69/94/69 68/91/68
f 65/95/65 63/96/63 67/97/67 51/89/51
f 63/98/63 64/99/64 66/93/66 67/97/67
f 62/100/62 60/101/60 63/98/63 65/95/65
f 60/102/60 61/103/61 64/104/64 63/98/63
f 50/105/50 58/106/58 60/102/60 62/100/62
f 58/106/58 59/107/59 61/108/61 60/102/60
f 49/109/49 57/110/57 58/111/58 50/105/50
f 57/112/57 56/113/56 59/114/59 58/111/58
f 74/79/74 55/115/55 57/110/57 49/109/49
f 55/115/55 73/81/73 56/113/56 57/112/57
f 70/80/70 54/116/54 88/117/88 73/81/73
f 69/86/69 52/118/52 54/119/54 70/87/70
f 66/93/66 87/120/87 52/118/52 69/94/69
f 64/99/64 76/121/76 87/122/87 66/93/66
f 61/103/61 75/123/75 76/121/76 64/104/64
f 59/107/59 86/124/86 75/125/75 61/108/61
f 56/113/56 85/126/85 86/124/86 59/114/59
f 73/81/73 88/117/88 85/126/85 56/113/56
f 84/127/84 77/128/77 85/129/85 88/117/88
f 77/128/77 78/130/78 86/124/86 85/129/85
f 78/131/78 79/132/79 75/125/75 86/133/86
f 79/134/79 80/135/80 76/121/76 75/136/75
f 80/135/80 81/137/81 87/122/87 76/121/76
f 81/138/81 82/139/82 52/118/52 87/120/87
f 82/139/82 83/140/83 54/119/54 52/118/52
f 83/141/83 84/142/84 88/117/88 54/116/54
f 91/143/91 89/144/89 95/145/95 94/146/94 92/147/92 96/148/96 90/149/90 93/150/93
f 77/128/77 84/127/84 89/151/89 91/152/91
f 81/137/81 80/135/80 96/153/96 92/154/92
f 84/142/84 83/141/83 95/155/95 89/151/89
f 80/135/80 79/134/79 90/156/90 96/153/96
f 83/140/83 82/139/82 94/157/94 95/158/95
f 79/132/79 78/131/78 93/159/93 90/156/90
f 82/139/82 81/138/81 92/160/92 94/157/94
f 78/130/78 77/128/77 91/152/91 93/159/93
f 105/8/105 121/161/121 122/162/122 106/1/106
f 121/161/121 120/163/120 107/6/107 122/2/122
f 104/12/104 119/164/119 121/165/121 105/166/105
f 119/164/119 118/167/118 120/168/120 121/165/121
f 103/169/103 117/170/117 119/13/119 104/12/104
f 117/170/117 116/20/116 118/16/118 119/171/119
f 102/172/102 115/173/115 117/19/117 103/169/103
f 115/173/115 114/30/114 116/174/116 117/19/117
f 101/175/101 113/176/113 115/177/115 102/172/102
f 113/26/113 112/29/112 114/178/114 115/177/115
f 99/179/99 111/180/111 113/176/113 101/175/101
f 111/181/111 110/35/110 112/182/112 113/176/113
f 98/183/98 109/36/109 111/180/111 99/179/99
f 109/36/109 108/7/108 110/35/110 111/180/111
f 106/1/106 122/2/122 109/36/109 98/183/98
f 122/2/122 107/184/107 108/7/108 109/36/109
f 120/163/120 136/47/136 97/40/97 107/6/107
f 118/167/118 135/39/135 136/51/136 120/168/120
f 116/20/116 134/185/134 135/186/135 118/16/118
f 114/30/114 133/50/133 134/187/134 116/174/116
f 112/29/112 124/44/124 133/50/133 114/178/114
f 110/35/110 100/188/100 124/189/124 112/182/112
f 108/7/108 123/48/123 100/43/100 110/35/110
f 107/184/107 97/40/97 123/48/123 108/7/108
f 126/190/126 125/52/125 123/48/123 97/40/97
f 125/52/125 127/54/127 100/43/100 123/48/123
f 127/54/127 128/191/128 124/189/124 100/43/100
f 128/56/128 129/192/129 133/50/133 124/44/124
f 129/57/129 130/193/130 134/187/134 133/50/133
f 130/193/130 131/59/131 135/39/135 134/185/134
f 131/59/131 132/194/132 136/51/136 135/39/135
f 132/195/132 126/63/126 97/40/97 136/47/136
f 125/52/125 126/190/126 144/67/144 137/75/137
f 130/193/130 129/57/129 143/65/143 139/66/139
f 126/63/126 132/195/132 140/70/140 144/67/144
f 129/192/129 128/56/128 138/69/138 143/65/143
f 132/194/132 131/59/131 142/72/142 140/73/140
f 128/191/128 127/54/127 141/74/141 138/69/138
f 131/59/131 130/193/130 139/66/139 142/72/142
f 127/54/127 125/52/125 137/75/137 141/74/141
f 41/196/41 46/197/46 48/198/48 45/199/45 44/200/44 43/201/43 42/202/42 47/203/47
f 137/196/137 144/204/144 140/198/140 142/199/142 139/205/139 143/206/143 138/207/138 141/208/141
